<svg xmlns="http://www.w3.org/2000/svg" viewBox="0 0 1000 420" fill="none"><defs><linearGradient id="wood" x2="0" y2="1"><stop stop-color="#bc8566"/><stop offset="1" stop-color="#865c48"/></linearGradient><linearGradient id="metal"><stop stop-color="#35454a"/><stop offset="1" stop-color="#243033"/></linearGradient></defs><rect x="295" y="13" width="420" height="392" rx="28" fill="#0f1517" stroke="#8d9d97" stroke-width="3"/><rect x="309" y="50" width="392" height="337" rx="8" fill="#e9e8df"/><path d="M455 31h96" stroke="#566666" stroke-width="6" stroke-linecap="round"/><rect x="309" y="50" width="392" height="64" fill="#a4c8ef"/><text x="336" y="91" fill="#203036" font-family="sans-serif" font-size="25" font-weight="bold">Ein ganzer Onlineshop</text><rect x="332" y="134" width="345" height="28" rx="10" fill="#d3d9d2"/><g fill="#c1d1cb"><rect x="333" y="183" width="101" height="93" rx="7"/><rect x="453" y="183" width="101" height="93" rx="7"/><rect x="574" y="183" width="101" height="93" rx="7"/></g><path d="m359 215 20-14 25 15-10 10v35h-30v-35l-11-10m132-2h40l-5 42h-30Zm9 0v-10a11 11 0 0 1 22 0v10m99 16 9-21h20l9 21v29h-38Z" stroke="#617872" stroke-width="3"/><path d="M337 297h89m31 0h89m31 0h89" stroke="#a4aea9" stroke-width="5"/><rect x="333" y="326" width="344" height="39" rx="8" fill="#c68760"/><text x="431" y="353" fill="#fff6e7" font-family="sans-serif" font-size="20">Zum Warenkorb</text></svg>